<?xml version="1.0" encoding="UTF-8"?>
<svg version="1.1" xmlns="http://www.w3.org/2000/svg" width="952" height="135">
<path d="M0 0 C0.09309675 8.30218275 0.16396427 16.60414372 0.20724869 24.90672112 C0.22803376 28.76287279 0.25618242 32.61866469 0.30175781 36.47460938 C0.34554361 40.20290741 0.36920521 43.93086161 0.37950897 47.65939713 C0.3868422 49.07464121 0.40116079 50.48986864 0.42292023 51.90496445 C0.54992492 60.51491873 -0.03436221 67.29825893 -4 75 C-4.51336914 76.07137207 -5.02673828 77.14274414 -5.55566406 78.24658203 C-6.03745117 79.15778809 -6.51923828 80.06899414 -7.015625 81.0078125 C-7.54414062 82.01328125 -8.07265625 83.01875 -8.6171875 84.0546875 C-9.15601562 85.06789063 -9.69484375 86.08109375 -10.25 87.125 C-10.80429687 88.176875 -11.35859375 89.22875 -11.9296875 90.3125 C-13.2820692 92.87736184 -14.63889278 95.43976116 -16 98 C-20.01222721 98 -21.05587263 96.66478998 -24 94 C-36.27444466 79.8549636 -41.1741799 65.65948649 -40.1953125 47.14257812 C-38.78865358 31.71152983 -30.31058502 19.29422486 -18.99609375 9.21484375 C-13.75709026 5.07656019 -6.83374065 0 0 0 Z " fill="#2D73CD" transform="translate(51,17)"/>
<path d="M0 0 C1.44814721 0.46970272 2.89520702 0.94275894 4.34179688 1.41723633 C5.55071594 1.81184807 5.55071594 1.81184807 6.78405762 2.21443176 C19.73090888 6.80418789 29.45169006 18.63332422 35.25 30.57421875 C41.24679485 44.61818315 40.91648515 57.42837143 37 72 C36.69835937 73.14275391 36.69835937 73.14275391 36.390625 74.30859375 C34.47434309 81.29140888 30.29901212 85.75640567 25.5625 91.125 C24.45068359 92.39730469 24.45068359 92.39730469 23.31640625 93.6953125 C21.02549775 95.97463125 18.83306494 97.47104432 16 99 C14.83035008 96.83490333 13.66434827 94.66794696 12.5 92.5 C12.18546875 91.91863281 11.8709375 91.33726563 11.546875 90.73828125 C10.81182045 89.36712179 10.10202801 87.98232013 9.40820312 86.58984375 C8.00457956 83.8834826 8.00457956 83.8834826 5.95117188 81.12890625 C-3.02773164 67.60664162 -0.90576533 50.90715734 -0.54931641 35.37915039 C-0.46648852 31.38331999 -0.43073329 27.38707204 -0.390625 23.390625 C-0.30562155 15.59262488 -0.16966004 7.79666761 0 0 Z " fill="#2E72CD" transform="translate(84,17)"/>
<path d="M0 0 C0.64710938 0.33902344 1.29421875 0.67804687 1.9609375 1.02734375 C8.36713602 4.95778432 12.31166575 11.88654697 14.375 19 C16.13483916 28.03505053 15.43930303 37.20695566 10.67578125 45.23046875 C5.41053618 52.59628403 -0.51378134 57.07166472 -9.3125 59.6875 C-19.1541151 60.83187385 -28.19256182 59.91201499 -36.62109375 54.234375 C-44.05974469 48.02939195 -48.0135916 40.65162684 -49 31 C-49.13001962 20.19392458 -46.43789294 11.76945866 -39.06640625 3.79296875 C-28.0598637 -5.75713149 -12.63151589 -6.76210126 0 0 Z M-30.75 12.6875 C-34.95707437 18.16616597 -35.78699344 25.25978198 -35 32 C-33.8444659 38.16635015 -31.80242001 42.05938939 -26.74609375 45.84375 C-21.8277628 49.10063134 -18.21418001 49.28242372 -12.43359375 48.53515625 C-7.43035803 47.43492624 -4.74826067 44.97071654 -1.6875 41 C1.96506524 34.50655068 1.88493746 26.88745275 0.57421875 19.6484375 C-1.10072836 14.32559944 -4.38012335 11.03441898 -9 8 C-17.23327068 5.25557644 -24.53785342 6.61653857 -30.75 12.6875 Z " fill="#FFFFFF" transform="translate(186,49)"/>
<path d="M0 0 C0 2.97 0 5.94 0 9 C-2.93843852 10.46921926 -5.75397821 10 -9 10 C-10.49743119 11.49743119 -10.33202693 12.98824239 -10.5625 15.0625 C-10.706875 16.361875 -10.85125 17.66125 -11 19 C-5.72 19 -0.44 19 5 19 C4.938125 17.63875 4.87625 16.2775 4.8125 14.875 C4.82622508 10.50356253 5.50736614 7.69597434 8 4 C12.32361761 0.09819874 14.73270263 -1.1401771 20.5 -1.125 C21.4796875 -1.12757812 22.459375 -1.13015625 23.46875 -1.1328125 C26 -1 26 -1 28 0 C28 3.3 28 6.6 28 10 C25.03 10 22.06 10 19 10 C18.34 12.97 17.68 15.94 17 19 C20.3 19 23.6 19 27 19 C27 22.3 27 25.6 27 29 C23.7 29 20.4 29 17 29 C17 40.88 17 52.76 17 65 C13.04 65 9.08 65 5 65 C5 53.12 5 41.24 5 29 C-0.28 29 -5.56 29 -11 29 C-11 40.88 -11 52.76 -11 65 C-14.96 65 -18.92 65 -23 65 C-23.09903562 57.15295068 -23.17154971 49.30626694 -23.21972656 41.45874023 C-23.2375524 38.7901319 -23.26708675 36.12238477 -23.30175781 33.45385742 C-23.35039508 29.61365924 -23.37299739 25.77404425 -23.390625 21.93359375 C-23.41127014 20.74479111 -23.43191528 19.55598846 -23.45318604 18.3311615 C-23.45498543 11.65686954 -23.08530573 7.38029347 -19 2 C-14.11179502 -1.69595986 -5.64147925 -2.82073963 0 0 Z " fill="#FFFFFF" transform="translate(230,43)"/>
<path d="M0 0 C3.44423922 2.95105003 5.86955067 6.59124761 7 11 C6.625 13.8125 6.625 13.8125 6 16 C2.62167463 16.28522447 -0.63184746 16.44690697 -4 16 C-5.9375 13.6875 -5.9375 13.6875 -7 11 C-8.1720734 9.25971382 -8.1720734 9.25971382 -10 8 C-12.63707148 7.56189656 -12.63707148 7.56189656 -15.5 7.6875 C-16.4590625 7.69136719 -17.418125 7.69523437 -18.40625 7.69921875 C-21.2348262 7.82782252 -21.2348262 7.82782252 -24 10 C-24.25015873 13.58357241 -24.25015873 13.58357241 -24 17 C-19.54058707 19.48354997 -15.65129516 20.57701087 -10.625 21.375 C-3.78468682 22.62211046 2.08648569 24.0346152 6.36328125 29.85546875 C8.83119584 34.24004553 9.64427406 37.93784664 9 43 C6.7703798 49.46589858 4.14131077 54.07110259 -2 57.25 C-10.3634523 61.23570774 -19.05460115 60.91971246 -27.7421875 57.96484375 C-34.02015898 55.28204279 -36.73042943 51.29721985 -39.3359375 45.28125 C-40 43 -40 43 -40 38 C-35.71 38 -31.42 38 -27 38 C-26.34895833 40.01822917 -25.69791667 42.03645833 -25.046875 44.0546875 C-23.69919048 46.55896695 -22.66992211 47.08162254 -20 48 C-17.54656978 48.31438484 -17.54656978 48.31438484 -15 48.25 C-13.7315625 48.25773437 -13.7315625 48.25773437 -12.4375 48.265625 C-9.82775563 47.98122978 -8.20904641 47.40037763 -6 46 C-4.58558126 43.17116253 -4.68099668 41.12623255 -5 38 C-8.39059952 34.45005115 -12.75587863 33.93652289 -17.375 33 C-25.94892379 31.24353645 -31.65889989 29.17233444 -37 22 C-38.97547993 18.04904013 -38.43307325 13.306334 -38 9 C-35.19809752 3.18066408 -30.78965699 -0.85131771 -24.8125 -3.3125 C-15.88866962 -4.92171532 -7.98180482 -4.68246672 0 0 Z " fill="#FFFFFF" transform="translate(301,49)"/>
<path d="M0 0 C4.87286387 4.26736007 7.97259992 8.4931328 9 15 C9 17.97 9 20.94 9 24 C-6.84 24.495 -6.84 24.495 -23 25 C-20.81940167 31.84825895 -20.81940167 31.84825895 -17 34 C-13.93524457 34.54522803 -11.06475161 34.54842924 -8 34 C-4.97590636 31.72872666 -4.97590636 31.72872666 -3 29 C-2 28 -2 28 0.50390625 27.90234375 C1.51324219 27.91394531 2.52257812 27.92554687 3.5625 27.9375 C4.57441406 27.94652344 5.58632813 27.95554687 6.62890625 27.96484375 C7.41136719 27.97644531 8.19382812 27.98804687 9 28 C8.52126863 33.02667941 7.27675909 36.13510466 4 40 C-3.10508082 44.59568883 -10.73562521 46.28108227 -19.08203125 44.57421875 C-25.93910064 42.3696777 -31.14790117 37.89390443 -35 31.875 C-37.43906558 24.85872693 -37.1676496 15.5542559 -34.1015625 8.77734375 C-30.72968175 3.33689787 -26.32005056 -0.6505742 -20.16796875 -2.56640625 C-13.29238777 -3.94152245 -6.07994896 -3.77636581 0 0 Z M-21.125 9.875 C-23.17149859 12.67844015 -23.17149859 12.67844015 -23 15 C-16.4 15 -9.8 15 -3 15 C-5.01151263 8.22510108 -5.01151263 8.22510108 -8 7 C-13.06875045 6.29127206 -17.59491443 5.69383236 -21.125 9.875 Z " fill="#FFFFFF" transform="translate(351,64)"/>
<path d="M0 0 C2.97 0 5.94 0 9 0 C9.00364563 0.778629 9.00729126 1.557258 9.01104736 2.35948181 C9.04966528 9.86940499 9.10730001 17.37887146 9.18390274 24.88849545 C9.22263411 28.74493006 9.25517016 32.60116163 9.27099609 36.45776367 C9.36167224 57.11802819 10.6989327 77.19578604 13.55456543 97.66213989 C14.14660926 102.09861526 14.60397242 106.54215627 15 111 C11.71855481 112.64072259 8.10210004 112.14274434 4.5 112.125 C3.71496094 112.12886719 2.92992188 112.13273437 2.12109375 112.13671875 C-3.74669213 112.12665394 -3.74669213 112.12665394 -6 111 C-5.54212318 101.74773039 -4.49539978 92.67462003 -3.10424805 83.52099609 C-0.5422859 65.98802398 -0.72450369 48.23005657 -0.46777344 30.5512085 C-0.41680661 27.09789792 -0.3615202 23.64465647 -0.30664062 20.19140625 C-0.20052981 13.4609932 -0.09859585 6.73052712 0 0 Z " fill="#3B5ECD" transform="translate(63,15)"/>
<path d="M0 0 C5.03580669 4.23949873 7.00191338 8.56788624 8 15 C6.35565051 16.64434949 4.51289998 16.36610059 2.25 16.5 C-0.5078125 16.49609375 -0.5078125 16.49609375 -3 16 C-4.62300836 14.33875322 -5.57690655 12.64657827 -6.7265625 10.63671875 C-8.35581697 8.54267696 -9.40818697 8.28448719 -12 7.875 C-15.77579201 7.71826901 -18.03973404 8.56213392 -21 11 C-24.03366791 15.55050186 -24.53166124 20.14232084 -23.53125 25.51953125 C-22.32636428 30.06257946 -22.32636428 30.06257946 -19.10546875 33.23828125 C-15.29162688 34.61805707 -11.56863492 34.42395538 -7.6875 33.375 C-5.22571502 31.36910113 -4.88835307 28.98232816 -4 26 C-1.59454362 24.79727181 -0.05003047 24.89928528 2.625 24.9375 C3.85089844 24.95103516 3.85089844 24.95103516 5.1015625 24.96484375 C5.72804688 24.97644531 6.35453125 24.98804687 7 25 C8.17497729 28.67783987 7.67875124 30.73135532 6.015625 34.26171875 C3.04257876 39.35020174 -1.69184205 43.01649358 -7.3125 44.6875 C-15.30324615 45.61665653 -21.46584172 45.15030387 -28.17578125 40.48828125 C-32.44588933 37.01442733 -35.95175524 33.57706918 -37 28 C-37.81299968 20.05524367 -37.68806016 12.71780688 -33 6 C-24.63930948 -3.26791438 -11.24007016 -6.93588574 0 0 Z " fill="#FFFFFF" transform="translate(403,64)"/>
<path d="M0 0 C0.99 0 1.98 0 3 0 C5.33333333 0 7.66666667 0 10 0 C10.12415248 4.44733299 10.21459457 8.8937326 10.2746582 13.34228516 C10.29971095 14.85353174 10.33376377 16.36465824 10.37719727 17.87548828 C10.4382669 20.05531501 10.46629916 22.23353262 10.48828125 24.4140625 C10.51446533 25.7232666 10.54064941 27.0324707 10.56762695 28.38134766 C9.82270275 33.13027948 8.38331617 34.64951942 5 38 C0.1265369 40.54749207 -4.78127156 40.46980231 -10 39 C-12.48502983 37.54658787 -13.9815022 36.12201051 -16 34 C-16 33.34 -16 32.68 -16 32 C-14.02 31.34 -12.04 30.68 -10 30 C-9.649375 30.495 -9.29875 30.99 -8.9375 31.5 C-6.02709013 33.75322054 -3.57033034 33.25966039 0 33 C0.99 32.505 0.99 32.505 2 32 C2 30.02 2 28.04 2 26 C1.01 26.66 0.02 27.32 -1 28 C-6.06852972 28.58163456 -8.0070464 28.62519301 -12.375 25.875 C-16.42979101 21.43403841 -17.22314624 17.95356079 -17 12.0625 C-16.34337778 6.76147675 -14.1243999 3.35492231 -10 0 C-6.28597026 -1.23800991 -3.83008202 -0.6155489 0 0 Z M3 2 C4 4 4 4 4 4 Z M-9 8 C-10.59385143 11.18770285 -10.38469375 14.53088671 -10 18 C-8.64957738 20.63332411 -7.78672715 21.63286066 -5.125 22.875 C-2.29288157 23.0415952 -0.50426513 22.28597399 2 21 C3.84873237 17.30253526 3.46872655 13.03625644 3 9 C1.51707157 6.26362699 1.51707157 6.26362699 -1 5 C-4.87303777 4.33874965 -6.60854816 4.8911126 -9 8 Z " fill="#FFFFFF" transform="translate(714,72)"/>
<path d="M0 0 C19.52992958 0 19.52992958 0 23.609375 2.609375 C26.34836428 5.34836428 27.50846718 8.18542836 28 12 C27.88252706 15.75222384 27.11517149 18.68650355 24.66015625 21.578125 C20.34818452 25.39635951 16.82425789 26.14447438 11.25 26.0625 C9.14625 26.0315625 9.14625 26.0315625 7 26 C7 30.29 7 34.58 7 39 C4.69 39 2.38 39 0 39 C0 26.13 0 13.26 0 0 Z M7 6 C7 10.62 7 15.24 7 20 C13.45640824 20.59081513 13.45640824 20.59081513 19.125 17.9375 C21.32087218 15.06261299 21.32087218 15.06261299 21.0625 11.3125 C20.37114006 7.98602312 20.37114006 7.98602312 18.23046875 6.80078125 C14.47668074 5.45309904 10.96181994 5.88347588 7 6 Z " fill="#FFFFFF" transform="translate(749,62)"/>
<path d="M0 0 C4.58243526 2.76855464 4.58243526 2.76855464 5.61889648 5.82519531 C6.04471599 8.25517618 6.11269966 10.51725521 6.09765625 12.984375 C6.09443359 13.91894531 6.09121094 14.85351562 6.08789062 15.81640625 C6.07951172 16.78449219 6.07113281 17.75257812 6.0625 18.75 C6.05798828 19.73355469 6.05347656 20.71710938 6.04882812 21.73046875 C6.03706483 24.15370791 6.02062684 26.57682273 6 29 C3.69 29 1.38 29 -1 29 C-1.33 28.34 -1.66 27.68 -2 27 C-2.99 27.66 -3.98 28.32 -5 29 C-9.5443629 29.43977705 -11.90234741 29.58385776 -15.9375 27.4375 C-18.66802141 24.21052015 -19.07383065 22.20834731 -19 18 C-17.12811675 14.63061016 -15.70639015 13.31395118 -12.1875 11.75 C-8.80233143 10.95348975 -5.45193345 10.41423201 -2 10 C-2.33 8.68 -2.66 7.36 -3 6 C-5.64 6 -8.28 6 -11 6 C-11.33 6.99 -11.66 7.98 -12 9 C-14.97 8.505 -14.97 8.505 -18 8 C-16.73090537 4.08695821 -15.53743024 2.14389712 -12 0 C-7.81883112 -1.39372296 -4.26774369 -0.97334505 0 0 Z M-6.5625 16 C-7.38878906 16.185625 -8.21507812 16.37125 -9.06640625 16.5625 C-10.02353516 16.7790625 -10.02353516 16.7790625 -11 17 C-11.33 18.65 -11.66 20.3 -12 22 C-9.17282787 24.33296251 -9.17282787 24.33296251 -5.9375 23.75 C-2.900541 23.2406756 -2.900541 23.2406756 -1 21 C-0.83318891 17.91652174 -0.83318891 17.91652174 -1 15 C-2.88598061 15 -4.73132362 15.58734053 -6.5625 16 Z " fill="#FFFFFF" transform="translate(800,72)"/>
<path d="M0 0 C3.5650858 1.94246469 5.66874991 4.27727253 7.375 8 C8 11 8 11 8 16 C1.4 16 -5.2 16 -12 16 C-9.8266327 21.93129112 -9.8266327 21.93129112 -6.625 23.0625 C-3.3140649 22.98366821 -1.79997837 21.70730388 1 20 C4.3125 19.8125 4.3125 19.8125 7 20 C6.79803569 23.63535761 6.21677989 24.7994786 3.5 27.3125 C-0.88256098 29.42552047 -4.22007802 29.72584 -9 29 C-13.14462994 27.25004514 -15.70055688 24.85977952 -18 21 C-19.38575123 15.84784798 -19.59522565 11.45276601 -17.3125 6.5625 C-13.2770186 -0.33956474 -7.69612989 -2.10952521 0 0 Z M-10.375 6.875 C-12.20248337 8.81893314 -12.20248337 8.81893314 -12 11 C-7.71 11 -3.42 11 1 11 C0.37158027 7.0285831 0.37158027 7.0285831 -2 5 C-5.75117071 4.51071686 -7.36248923 4.49670202 -10.375 6.875 Z " fill="#FFFFFF" transform="translate(554,72)"/>
<path d="M0 0 C3.40569591 2.14706916 5.80960782 4.10417103 7 8 C7 10.64 7 13.28 7 16 C-2.405 16.495 -2.405 16.495 -12 17 C-11.67 18.65 -11.34 20.3 -11 22 C-5.61307386 23.16188603 -3.56149645 22.92403618 1 20 C4.3125 19.8125 4.3125 19.8125 7 20 C6.45712148 23.80014965 4.88535357 25.53896313 2 28 C-3.40115361 29.80038454 -8.2171082 29.85842938 -13.375 27.375 C-16.98217883 24.11136201 -18.67268132 21.48115645 -19.31640625 16.6015625 C-19.58256248 10.8834963 -18.90062548 7.44237902 -15 3 C-10.29978949 -1.13048803 -5.99033234 -1.52098282 0 0 Z M-11.375 7.4375 C-13.089257 9.63503326 -13.089257 9.63503326 -13 11 C-8.38 11 -3.76 11 1 11 C-0.33563616 6.05536365 -0.33563616 6.05536365 -3 5 C-7.12239733 4.462296 -8.40324904 4.38754506 -11.375 7.4375 Z " fill="#FFFFFF" transform="translate(903,72)"/>
<path d="M0 0 C0.75023437 0.04382813 1.50046875 0.08765625 2.2734375 0.1328125 C6.03122194 1.3188242 7.35939356 2.60951121 9.625 5.875 C10.23645688 9.99627988 10.09532942 14.03294401 9.9375 18.1875 C9.91494141 19.30962891 9.89238281 20.43175781 9.86914062 21.58789062 C9.81033776 24.35162536 9.72820401 27.11262554 9.625 29.875 C7.645 29.875 5.665 29.875 3.625 29.875 C3.295 29.215 2.965 28.555 2.625 27.875 C1.635 28.535 0.645 29.195 -0.375 29.875 C-7.32177871 30.54726891 -7.32177871 30.54726891 -11.3125 28 C-13.78222893 25.4554308 -14.30445549 24.52400949 -14.6875 21 C-14.375 17.875 -14.375 17.875 -12.75 15.625 C-8.08228953 12.18563439 -3.0319807 11.55383768 2.625 10.875 C2.295 9.555 1.965 8.235 1.625 6.875 C-2.71284228 6.49796362 -2.71284228 6.49796362 -6.4375 8.4375 C-8.375 9.875 -8.375 9.875 -11.125 9.5625 C-11.8675 9.335625 -12.61 9.10875 -13.375 8.875 C-13.03966224 5.74518088 -12.37433599 4.87438841 -10 2.6875 C-6.52077865 0.28518049 -4.13114547 -0.32428787 0 0 Z M-1.875 16.8125 C-2.6896875 16.98652344 -3.504375 17.16054687 -4.34375 17.33984375 C-6.35537078 17.68749554 -6.35537078 17.68749554 -7.375 18.875 C-7.41563832 20.54117115 -7.417721 22.20888095 -7.375 23.875 C-4.40655004 24.54964772 -2.06150224 25.02343292 0.9375 24.375 C3.60887573 22.00044379 3.3711778 19.30159975 3.625 15.875 C1.75878636 15.875 -0.05883169 16.41880529 -1.875 16.8125 Z " fill="#FFFFFF" transform="translate(581.375,71.125)"/>
<path d="M0 0 C2.93087207 2.25451698 3.82814288 3.48442865 5 7 C5.08178114 8.70016844 5.10749501 10.40336297 5.09765625 12.10546875 C5.09443359 13.08837891 5.09121094 14.07128906 5.08789062 15.08398438 C5.07951172 16.10814453 5.07113281 17.13230469 5.0625 18.1875 C5.05798828 19.22326172 5.05347656 20.25902344 5.04882812 21.32617188 C5.0370401 23.88417266 5.02058515 26.44205733 5 29 C2.69 29 0.38 29 -2 29 C-2.33 21.74 -2.66 14.48 -3 7 C-8.74922159 5.33885691 -8.74922159 5.33885691 -12 8 C-12.50776044 10.21932277 -12.50776044 10.21932277 -12.51171875 12.7890625 C-12.54716797 13.73007813 -12.58261719 14.67109375 -12.61914062 15.640625 C-12.65297852 17.11789063 -12.65297852 17.11789063 -12.6875 18.625 C-12.72166016 19.61757812 -12.75582031 20.61015625 -12.79101562 21.6328125 C-12.87365657 24.08842906 -12.94275127 26.54368141 -13 29 C-15.31 29 -17.62 29 -20 29 C-20 19.43 -20 9.86 -20 0 C-16.66666667 0 -13.33333333 0 -10 0 C-6.74294726 -1.62852637 -3.41047122 -0.88469649 0 0 Z " fill="#FFFFFF" transform="translate(640,72)"/>
<path d="M0 0 C2.93087207 2.25451698 3.82814288 3.48442865 5 7 C5.08178114 8.70016844 5.10749501 10.40336297 5.09765625 12.10546875 C5.09443359 13.08837891 5.09121094 14.07128906 5.08789062 15.08398438 C5.07951172 16.10814453 5.07113281 17.13230469 5.0625 18.1875 C5.05798828 19.22326172 5.05347656 20.25902344 5.04882812 21.32617188 C5.0370401 23.88417266 5.02058515 26.44205733 5 29 C2.69 29 0.38 29 -2 29 C-2.33 21.74 -2.66 14.48 -3 7 C-8.74922159 5.33885691 -8.74922159 5.33885691 -12 8 C-12.50776044 10.21932277 -12.50776044 10.21932277 -12.51171875 12.7890625 C-12.54716797 13.73007813 -12.58261719 14.67109375 -12.61914062 15.640625 C-12.65297852 17.11789063 -12.65297852 17.11789063 -12.6875 18.625 C-12.72166016 19.61757812 -12.75582031 20.61015625 -12.79101562 21.6328125 C-12.87365657 24.08842906 -12.94275127 26.54368141 -13 29 C-14.99954746 29.04254356 -17.00041636 29.04080783 -19 29 C-20 28 -20 28 -20.11352539 25.31616211 C-20.10828857 24.14835205 -20.10305176 22.98054199 -20.09765625 21.77734375 C-20.09443359 20.51728516 -20.09121094 19.25722656 -20.08789062 17.95898438 C-20.07953403 16.61848891 -20.07106907 15.27799412 -20.0625 13.9375 C-20.0574866 12.59310058 -20.05292342 11.2486994 -20.04882812 9.90429688 C-20.03699488 6.60282059 -20.02050971 3.30143197 -20 0 C-16.66666667 0 -13.33333333 0 -10 0 C-6.74294726 -1.62852637 -3.41047122 -0.88469649 0 0 Z " fill="#FFFFFF" transform="translate(686,72)"/>
<path d="M0 0 C3.56060675 3.37801153 4.84344634 6.35956004 5.12939453 11.18237305 C5.13052246 11.95105713 5.13165039 12.71974121 5.1328125 13.51171875 C5.13474609 14.77145508 5.13474609 14.77145508 5.13671875 16.05664062 C5.13285156 16.92482422 5.12898437 17.79300781 5.125 18.6875 C5.13080078 20.00717773 5.13080078 20.00717773 5.13671875 21.35351562 C5.13542969 22.18947266 5.13414062 23.02542969 5.1328125 23.88671875 C5.13168457 24.65201904 5.13055664 25.41731934 5.12939453 26.20581055 C5 28 5 28 4 29 C2.02 29 0.04 29 -2 29 C-2.495 17.615 -2.495 17.615 -3 6 C-5.31 6 -7.62 6 -10 6 C-12.48057628 8.48057628 -12.29019005 9.36192464 -12.4140625 12.7890625 C-12.45273437 13.73007813 -12.49140625 14.67109375 -12.53125 15.640625 C-12.5621875 16.62546875 -12.593125 17.6103125 -12.625 18.625 C-12.68300781 20.11386719 -12.68300781 20.11386719 -12.7421875 21.6328125 C-12.8366314 24.08835385 -12.92219875 26.5438841 -13 29 C-15.31 29 -17.62 29 -20 29 C-20 19.43 -20 9.86 -20 0 C-17 0 -14 0 -11 0 C-7.16036354 -1.27987882 -3.84120922 -1.13842289 0 0 Z " fill="#FFFFFF" transform="translate(873,72)"/>
<path d="M0 0 C1.32 0 2.64 0 4 0 C4 34.98 4 69.96 4 106 C2.68 106 1.36 106 0 106 C0 71.02 0 36.04 0 0 Z " fill="#FFFFFF" transform="translate(467,29)"/>
<path d="M0 0 C2.31 0 4.62 0 7 0 C7 10.89 7 21.78 7 33 C12.61 33 18.22 33 24 33 C24 34.98 24 36.96 24 39 C16.08 39 8.16 39 0 39 C0 26.13 0 13.26 0 0 Z " fill="#FFFFFF" transform="translate(508,62)"/>
<path d="M0 0 C2.31 0 4.62 0 7 0 C7 2.31 7 4.62 7 7 C8.98 7 10.96 7 13 7 C13 8.65 13 10.3 13 12 C11.02 12 9.04 12 7 12 C7.33 17.61 7.66 23.22 8 29 C9.32 29.33 10.64 29.66 12 30 C12.33 31.98 12.66 33.96 13 36 C8.86001651 36.32470459 6.66000999 36.4304413 3.125 34.125 C0.50043721 31.50043721 0.02808119 30.73735777 -0.11352539 27.01904297 C-0.10828857 25.77268066 -0.10305176 24.52631836 -0.09765625 23.2421875 C-0.0962413 22.57913605 -0.09482635 21.91608459 -0.09336853 21.23294067 C-0.08776754 19.11358137 -0.075215 16.99432741 -0.0625 14.875 C-0.05748512 13.43880361 -0.05292219 12.00260556 -0.04882812 10.56640625 C-0.03779782 7.04423655 -0.02053259 3.52212855 0 0 Z " fill="#FFFFFF" transform="translate(834,65)"/>
<path d="M0 0 C0 2.31 0 4.62 0 7 C-1.7015625 7.2165625 -1.7015625 7.2165625 -3.4375 7.4375 C-6.80777201 7.61171478 -6.80777201 7.61171478 -8 9 C-8.15686249 10.55948542 -8.25076639 12.12542668 -8.31640625 13.69140625 C-8.35830078 14.63564453 -8.40019531 15.57988281 -8.44335938 16.55273438 C-8.48267578 17.54595703 -8.52199219 18.53917969 -8.5625 19.5625 C-8.62727539 21.05813477 -8.62727539 21.05813477 -8.69335938 22.58398438 C-8.79980298 25.0558415 -8.90181928 27.5278031 -9 30 C-11.31 30 -13.62 30 -16 30 C-16 20.43 -16 10.86 -16 1 C-13 1 -10 1 -7 1 C-4.53721199 -0.231394 -2.7204945 -0.07159196 0 0 Z " fill="#FFFFFF" transform="translate(829,71)"/>
<path d="M0 0 C0 2.31 0 4.62 0 7 C-1.7015625 7.2165625 -1.7015625 7.2165625 -3.4375 7.4375 C-6.80777201 7.61171478 -6.80777201 7.61171478 -8 9 C-8.15686249 10.55948542 -8.25076639 12.12542668 -8.31640625 13.69140625 C-8.35830078 14.63564453 -8.40019531 15.57988281 -8.44335938 16.55273438 C-8.48267578 17.54595703 -8.52199219 18.53917969 -8.5625 19.5625 C-8.62727539 21.05813477 -8.62727539 21.05813477 -8.69335938 22.58398438 C-8.79980298 25.0558415 -8.90181928 27.5278031 -9 30 C-11.31 30 -13.62 30 -16 30 C-16 20.43 -16 10.86 -16 1 C-14.02 1 -12.04 1 -10 1 C-9.67 1.66 -9.34 2.32 -9 3 C-8.443125 2.505 -7.88625 2.01 -7.3125 1.5 C-4.61837017 -0.24754367 -3.14624993 -0.26218749 0 0 Z " fill="#FFFFFF" transform="translate(615,71)"/>
<path d="M0 0 C0 2.31 0 4.62 0 7 C-0.969375 7.144375 -1.93875 7.28875 -2.9375 7.4375 C-5.86486773 7.67562341 -5.86486773 7.67562341 -7 9 C-7.15686249 10.55948542 -7.25076639 12.12542668 -7.31640625 13.69140625 C-7.35830078 14.63564453 -7.40019531 15.57988281 -7.44335938 16.55273438 C-7.48267578 17.54595703 -7.52199219 18.53917969 -7.5625 19.5625 C-7.62727539 21.05813477 -7.62727539 21.05813477 -7.69335938 22.58398438 C-7.79980298 25.0558415 -7.90181928 27.5278031 -8 30 C-10.31 30 -12.62 30 -15 30 C-15 20.43 -15 10.86 -15 1 C-13.02 1 -11.04 1 -9 1 C-8.67 1.66 -8.34 2.32 -8 3 C-7.4225 2.505 -6.845 2.01 -6.25 1.5 C-4 0 -4 0 0 0 Z " fill="#FFFFFF" transform="translate(932,71)"/>
<path d="M0 0 C2.31 0 4.62 0 7 0 C7 9.57 7 19.14 7 29 C4.69 29 2.38 29 0 29 C0 19.43 0 9.86 0 0 Z " fill="#FFFFFF" transform="translate(652,72)"/>
<path d="M0 0 C4 1 4 1 6 4 C6.66 2.68 7.32 1.36 8 0 C8.99 0 9.98 0 11 0 C11 3.63 11 7.26 11 11 C9.68 10.67 8.36 10.34 7 10 C4.94603274 10.40929986 4.94603274 10.40929986 3 11 C2.01 11 1.02 11 0 11 C0 7.37 0 3.74 0 0 Z M8 6 C9 8 9 8 9 8 Z " fill="#FFFFFF" transform="translate(427,62)"/>
<path d="M0 0 C0.33 0 0.66 0 1 0 C1 21.45 1 42.9 1 65 C0.67 65 0.34 65 0 65 C0 43.55 0 22.1 0 0 Z " fill="#4EA4E7" transform="translate(82,18)"/>
<path d="M0 0 C2.00720923 0.28674418 4.0085944 0.61866701 6 1 C6.042721 2.66611905 6.04063832 4.33382885 6 6 C5 7 5 7 2.5625 7.1875 C0 7 0 7 -2 5 C-1.46428571 1.46428571 -1.46428571 1.46428571 0 0 Z " fill="#FFFFFF" transform="translate(653,61)"/>
<path d="M0 0 C2.64 0 5.28 0 8 0 C8 0.66 8 1.32 8 2 C7.34 2 6.68 2 6 2 C6 4.64 6 7.28 6 10 C5.01 10.33 4.02 10.66 3 11 C3 8.03 3 5.06 3 2 C2.01 2 1.02 2 0 2 C0 1.34 0 0.68 0 0 Z " fill="#FFFFFF" transform="translate(418,62)"/>
<path d="" fill="#3D5DCE" transform="translate(0,0)"/>
<path d="" fill="#5C29D0" transform="translate(0,0)"/>
<path d="" fill="#582FCF" transform="translate(0,0)"/>
<path d="" fill="#503ACE" transform="translate(0,0)"/>
<path d="" fill="#474ECF" transform="translate(0,0)"/>
<path d="" fill="#4F53D6" transform="translate(0,0)"/>
<path d="" fill="#4351CD" transform="translate(0,0)"/>
<path d="" fill="#545DDC" transform="translate(0,0)"/>
<path d="" fill="#2D83D1" transform="translate(0,0)"/>
<path d="" fill="#15A1CB" transform="translate(0,0)"/>
<path d="" fill="#39BDE1" transform="translate(0,0)"/>
</svg>
