<?xml version="1.0" encoding="UTF-8"?>
<svg version="1.1" xmlns="http://www.w3.org/2000/svg" width="31" height="32">
<path d="M0 0 C3.91311929 2.20350406 6.00067032 4.14739741 7.8125 8.375 C8.63629728 14.01604997 8.92501098 19.49625775 5.75 24.4375 C2.09347181 28.66053255 -2.16166572 30.11716655 -7.625 30.8125 C-13.48303424 30.09309229 -17.51964365 28.04285635 -21.6875 23.875 C-24.11342684 18.21450405 -24.61372674 11.97212054 -22.3046875 6.1484375 C-17.27582054 -1.67794485 -8.33304388 -3.68814349 0 0 Z " fill="#1B78F2" transform="translate(23.1875,1.625)"/>
<path d="M0 0 C3.625 -0.1875 3.625 -0.1875 7 0 C7 0.99 7 1.98 7 3 C6.01 3.66 5.02 4.32 4 5 C3.27617533 7.05925139 3.27617533 7.05925139 3 9 C4.32 9 5.64 9 7 9 C7 10.32 7 11.64 7 13 C5.68 13 4.36 13 3 13 C3 16.96 3 20.92 3 25 C1.35 25 -0.3 25 -2 25 C-2 21.04 -2 17.08 -2 13 C-3.32 13 -4.64 13 -6 13 C-6 11.68 -6 10.36 -6 9 C-4.68 9 -3.36 9 -2 9 C-2.04125 8.071875 -2.0825 7.14375 -2.125 6.1875 C-2 3 -2 3 0 0 Z " fill="#F5F9FE" transform="translate(15,7)"/>
</svg>
