<?xml version="1.0" encoding="UTF-8"?>
<svg xmlns="http://www.w3.org/2000/svg" xmlns:xlink="http://www.w3.org/1999/xlink" width="15pt" height="15pt" viewBox="0 0 15 15" version="1.1">
<g id="surface1">
<path style=" stroke:none;fill-rule:nonzero;fill:rgb(23.529412%,35.294118%,60.392157%);fill-opacity:1;" d="M 15 7.5 C 15 11.640625 11.640625 15 7.5 15 C 3.359375 15 0 11.640625 0 7.5 C 0 3.359375 3.359375 0 7.5 0 C 11.640625 0 15 3.359375 15 7.5 Z M 15 7.5 "/>
<path style=" stroke:none;fill-rule:nonzero;fill:rgb(100%,100%,100%);fill-opacity:1;" d="M 9.9375 2.300781 L 8.277344 2.300781 C 7.292969 2.300781 6.195312 2.714844 6.195312 4.144531 C 6.199219 4.644531 6.195312 5.121094 6.195312 5.65625 L 5.054688 5.65625 L 5.054688 7.472656 L 6.230469 7.472656 L 6.230469 12.699219 L 8.390625 12.699219 L 8.390625 7.4375 L 9.816406 7.4375 L 9.945312 5.652344 L 8.351562 5.652344 C 8.351562 5.652344 8.355469 4.859375 8.351562 4.628906 C 8.351562 4.0625 8.941406 4.09375 8.976562 4.09375 C 9.257812 4.09375 9.800781 4.097656 9.941406 4.09375 L 9.941406 2.300781 Z M 9.9375 2.300781 "/>
</g>
</svg>
