<?xml version="1.0" encoding="UTF-8"?>
<svg version="1.1" xmlns="http://www.w3.org/2000/svg" width="31" height="32">
<path d="M0 0 C0.7528125 0.07863281 1.505625 0.15726563 2.28125 0.23828125 C4.62887164 0.71359197 6.41514781 1.52661639 8.5 2.6875 C7.92655063 5.55474686 7.6385485 6.5489515 5.5 8.6875 C3.29296875 8.48828125 3.29296875 8.48828125 0.6875 8 C-3.27038279 7.52964292 -4.13896379 7.46804662 -7.6875 9.625 C-9.79382475 13.1839625 -9.95696867 14.91546433 -9.1328125 18.87890625 C-8.55041646 20.84000517 -8.55041646 20.84000517 -6.9375 22.75 C-3.10418885 24.22435044 -0.50353001 23.5915229 3.5 22.6875 C4.16 21.6975 4.82 20.7075 5.5 19.6875 C4.365625 19.708125 3.23125 19.72875 2.0625 19.75 C-1.5 19.6875 -1.5 19.6875 -2.5 18.6875 C-2.5 16.7075 -2.5 14.7275 -2.5 12.6875 C2.78 12.6875 8.06 12.6875 13.5 12.6875 C13.5 22.02083333 13.5 22.02083333 9.5 27.6875 C5.26528008 31.45568298 1.05004148 31.96250206 -4.5 31.6875 C-9.85493196 30.14315956 -13.47482115 27.40677901 -16.5 22.6875 C-18.16026461 17.70670617 -18.09903425 13.38476371 -16.375 8.5 C-13.86984746 4.74227119 -10.99672848 1.54527175 -6.58984375 0.03125 C-4.26857943 -0.35056544 -2.33521297 -0.26790971 0 0 Z " fill="#587DBC" transform="translate(17.5,0.3125)"/>
<path d="M0 0 C0.7528125 0.07863281 1.505625 0.15726563 2.28125 0.23828125 C4.62887164 0.71359197 6.41514781 1.52661639 8.5 2.6875 C7.92655063 5.55474686 7.6385485 6.5489515 5.5 8.6875 C3.29296875 8.48828125 3.29296875 8.48828125 0.6875 8 C-3.32971966 7.51165492 -4.09736886 7.42176345 -7.625 9.75 C-9.77462226 12.5369248 -9.77462226 12.5369248 -9.5 15.75 C-9.5 16.719375 -9.5 17.68875 -9.5 18.6875 C-11.875 21.0625 -11.875 21.0625 -14.5 22.6875 C-15.16 22.6875 -15.82 22.6875 -16.5 22.6875 C-18.16026461 17.70670617 -18.09903425 13.38476371 -16.375 8.5 C-13.86984746 4.74227119 -10.99672848 1.54527175 -6.58984375 0.03125 C-4.26857943 -0.35056544 -2.33521297 -0.26790971 0 0 Z " fill="#E3372A" transform="translate(17.5,0.3125)"/>
<path d="M0 0 C0.680625 0.825 1.36125 1.65 2.0625 2.5 C5.72576798 5.61767488 7.32717619 5.25911943 11.90625 4.984375 C14 5 14 5 16.5625 6.375 C18 8 18 8 18 10 C12.38431804 12.98706487 8.20661567 13.67014385 2 12 C-1.93320826 9.92612655 -4.47735451 8.26340736 -6 4 C-2.25 0 -2.25 0 0 0 Z " fill="#35A046" transform="translate(8,19)"/>
<path d="M0 0 C2 1 4 2 6 3 C6.9375 6.3125 6.9375 6.3125 7 10 C4.6875 12.4375 4.6875 12.4375 2 14 C1.34 14 0.68 14 0 14 C-0.89214652 11.32356043 -1.13540211 9.74615622 -1.125 7 C-1.12757812 6.319375 -1.13015625 5.63875 -1.1328125 4.9375 C-1 3 -1 3 0 0 Z " fill="#F5BA01" transform="translate(1,9)"/>
</svg>
