<?xml version="1.0" encoding="UTF-8"?>
<svg version="1.1" xmlns="http://www.w3.org/2000/svg" width="28" height="32">
<path d="M0 0 C1.32 0 2.64 0 4 0 C4.66 2.97 5.32 5.94 6 9 C6.99 8.01 7.98 7.02 9 6 C11.6875 5.8125 11.6875 5.8125 14 6 C14.33 4.02 14.66 2.04 15 0 C16.65 0 18.3 0 20 0 C20.02887814 3.47914941 20.04675687 6.95826831 20.0625 10.4375 C20.07087891 11.43072266 20.07925781 12.42394531 20.08789062 13.44726562 C20.09272461 14.86362305 20.09272461 14.86362305 20.09765625 16.30859375 C20.10551147 17.62041626 20.10551147 17.62041626 20.11352539 18.95874023 C20 21 20 21 19 22 C17.2127943 22.15135944 15.41838124 22.22175778 13.625 22.25 C12.64789062 22.27578125 11.67078125 22.3015625 10.6640625 22.328125 C8 22 8 22 6.1484375 20.484375 C5.76945313 19.99453125 5.39046875 19.5046875 5 19 C4.34 19.99 3.68 20.98 3 22 C0.8359375 22.29296875 0.8359375 22.29296875 -1.625 22.1875 C-2.85089844 22.14689453 -2.85089844 22.14689453 -4.1015625 22.10546875 C-4.72804688 22.07066406 -5.35453125 22.03585938 -6 22 C-6 20.02 -6 18.04 -6 16 C-4.35 16 -2.7 16 -1 16 C-1.01160156 14.92878906 -1.02320313 13.85757812 -1.03515625 12.75390625 C-1.04453299 11.35677257 -1.05363331 9.95963701 -1.0625 8.5625 C-1.07506836 7.50192383 -1.07506836 7.50192383 -1.08789062 6.41992188 C-1.09653588 4.61306441 -1.05220011 2.80612397 -1 1 C-0.67 0.67 -0.34 0.34 0 0 Z M11 12 C10.67 12.99 10.34 13.98 10 15 C10.33 15.66 10.66 16.32 11 17 C12.32 16.67 13.64 16.34 15 16 C15 14.68 15 13.36 15 12 C13.68 12 12.36 12 11 12 Z " fill="#F46F23" transform="translate(6,5)"/>
<path d="M0 0 C1.32 0 2.64 0 4 0 C5.63405901 3.26811802 5.18453757 6.84999407 5.1875 10.4375 C5.19974609 11.21416016 5.21199219 11.99082031 5.22460938 12.79101562 C5.23474195 16.71232309 5.2225417 18.66618745 3 22 C0.8359375 22.29296875 0.8359375 22.29296875 -1.625 22.1875 C-2.85089844 22.14689453 -2.85089844 22.14689453 -4.1015625 22.10546875 C-4.72804688 22.07066406 -5.35453125 22.03585938 -6 22 C-6 20.02 -6 18.04 -6 16 C-4.35 16 -2.7 16 -1 16 C-1.01160156 14.92878906 -1.02320313 13.85757812 -1.03515625 12.75390625 C-1.04453299 11.35677257 -1.05363331 9.95963701 -1.0625 8.5625 C-1.07506836 7.50192383 -1.07506836 7.50192383 -1.08789062 6.41992188 C-1.09653588 4.61306441 -1.05220011 2.80612397 -1 1 C-0.67 0.67 -0.34 0.34 0 0 Z " fill="#4485C7" transform="translate(6,5)"/>
</svg>
