<?xml version="1.0" encoding="UTF-8"?>
<svg version="1.1" xmlns="http://www.w3.org/2000/svg" width="31" height="32">
<path d="M0 0 C2.69990662 1.79993774 4.5418865 3.083773 6 6 C6.203125 8.2421875 6.203125 8.2421875 6.25 10.875 C6.28867187 12.17050781 6.28867187 12.17050781 6.328125 13.4921875 C5.94108924 16.45024649 4.95124005 17.79201784 3 20 C2.34 19.67 1.68 19.34 1 19 C0.95875 18.0925 0.9175 17.185 0.875 16.25 C0.35414134 12.97213929 0.35414134 12.97213929 -1.8046875 11.66796875 C-3.2610542 10.85167781 -4.71807985 10.03656134 -6.17578125 9.22265625 C-8 8 -8 8 -9.1875 5.375 C-9 3 -9 3 -7.9375 1.1875 C-5.09140221 -0.55688251 -3.28395122 -0.45975317 0 0 Z " fill="#FFD20D" transform="translate(20,5)"/>
<path d="M0 0 C0.33 0 0.66 0 1 0 C1.165 1.051875 1.33 2.10375 1.5 3.1875 C2.46915097 6.74823246 3.89725417 7.87555248 7.0625 9.6875 C7.77535156 10.04199219 8.48820312 10.39648438 9.22265625 10.76171875 C11 12 11 12 11.8125 14.00390625 C12 16 12 16 10.9375 18.25 C9 20 9 20 6.125 20.5 C2.26889254 19.88302281 0.7095127 18.78477694 -2 16 C-4.47575903 11.83622346 -4.09616641 8.63762714 -3 4 C-1.5 1.5625 -1.5 1.5625 0 0 Z " fill="#FB3736" transform="translate(8,7)"/>
<path d="M0 0 C3.83473284 -0.35671933 5.55342875 -0.29771416 8.8125 1.875 C11.22747889 4.22097949 11.96092986 5.04668849 12.09765625 8.3828125 C12.08605469 9.28773437 12.07445312 10.19265625 12.0625 11.125 C12.05347656 12.03507812 12.04445313 12.94515625 12.03515625 13.8828125 C12.02355469 14.58148438 12.01195312 15.28015625 12 16 C11.34 16.33 10.68 16.66 10 17 C9.7525 15.783125 9.505 14.56625 9.25 13.3125 C8.25705591 9.38932931 6.95418404 6.86977878 4 4 C1.38181544 2.66701026 1.38181544 2.66701026 -1 2 C-0.67 1.34 -0.34 0.68 0 0 Z " fill="#FFB70C" transform="translate(14,5)"/>
</svg>
